<svg id="Fimer_Logo" data-name="Fimer Logo" xmlns="http://www.w3.org/2000/svg" viewBox="0 0 1000 600"><defs><style>.cls-1{fill:#fff;}.cls-2{fill:#250e62;}</style></defs><title>Fimer_Logo_RGB_Blue_pos</title><rect class="cls-1" width="1000" height="600"/><path class="cls-1" d="M893.14,819.37v-372H830.39L789.58,726h-1.17L747.6,447.32H684.85V819.37h38.42V553.3h1.28l42.36,266.07h44.17L853.44,553.3h1.28V819.37ZM1161,485.91c6.64,0,14.9,3.31,14.9,14.61v102c0,7.62-4.13,14.91-11.58,14.91h-30.44V485.91Zm-71.55,333.46h44.4V656h14.71c10.1,0,27.47,9.93,27.47,27.48V819.37h44.2V660.16c0-19.75-22.5-25.54-22.5-25.54s22.5.82,22.5-28V483.83c0-15.74-15.26-36.51-42.08-36.51h-88.7Zm-145-372H1056.6v38.59H989.05V617.4H1039V656H989.05V780.78h67.59v38.59H944.5ZM588.94,819.37H633.5v-372H588.93ZM446.4,447.29l113.07,0v38.59H491V617.4h50V656H491V819.37H446.4Z" transform="translate(-333.33 -333.33)"/><rect class="cls-2" width="1000" height="600"/><path class="cls-1" d="M893.14,819.37v-372H830.39L789.58,726h-1.17L747.6,447.32H684.85V819.37h38.42V553.3h1.28l42.36,266.07h44.17L853.44,553.3h1.28V819.37ZM1161,485.91c6.64,0,14.9,3.31,14.9,14.61v102c0,7.62-4.13,14.91-11.58,14.91h-30.44V485.91Zm-71.55,333.46h44.4V656h14.71c10.1,0,27.47,9.93,27.47,27.48V819.37h44.2V660.16c0-19.75-22.5-25.54-22.5-25.54s22.5.82,22.5-28V483.83c0-15.74-15.26-36.51-42.08-36.51h-88.7Zm-145-372H1056.6v38.59H989.05V617.4H1039V656H989.05V780.78h67.59v38.59H944.5ZM588.94,819.37H633.5v-372H588.93ZM446.4,447.29l113.07,0v38.59H491V617.4h50V656H491V819.37H446.4Z" transform="translate(-333.33 -333.33)"/></svg>